{
  "asset": {
    "generator": "Khronos glTF Blender I/O v3.5.30",
    "version": "2.0"
  },
  "scene": 0,
  "scenes": [
    {
      "name": "Scene",
      "nodes": [
        0
      ]
    }
  ],
  "nodes": [
    {
      "mesh": 0,
      "name": "sphere_gltf"
    }
  ],
  "materials": [
    {
      "doubleSided": true,
      "name": "herringbone_parquet",
      "normalTexture": {
        "index": 0,
        "scale": 0.019999999552965164
      },
      "pbrMetallicRoughness": {
        "baseColorTexture": {
          "index": 1
        },
        "metallicFactor": 0,
        "metallicRoughnessTexture": {
          "index": 2
        }
      }
    }
  ],
  "meshes": [
    {
      "name": "Sphere.001",
      "primitives": [
        {
          "attributes": {
            "POSITION": 0,
            "TEXCOORD_0": 1,
            "NORMAL": 2
          },
          "indices": 3,
          "material": 0
        }
      ]
    }
  ],
  "textures": [
    {
      "sampler": 0,
      "source": 0
    },
    {
      "sampler": 0,
      "source": 1
    },
    {
      "sampler": 0,
      "source": 2
    }
  ],
  "images": [
    {
      "mimeType": "image/jpeg",
      "name": "herringbone_parquet_nor_gl",
      "uri": "textures/herringbone_parquet_nor_gl_2k.jpg"
    },
    {
      "mimeType": "image/jpeg",
      "name": "herringbone_parquet_diff",
      "uri": "textures/herringbone_parquet_diff_2k.jpg"
    },
    {
      "mimeType": "image/jpeg",
      "name": "herringbone_parquet_rough",
      "uri": "textures/herringbone_parquet_arm_2k.jpg"
    }
  ],
  "accessors": [
    {
      "bufferView": 0,
      "componentType": 5126,
      "count": 53918,
      "max": [
        1.701615333557129,
        1.7033523321151733,
        1.7016037702560425
      ],
      "min": [
        -1.7016150951385498,
        -1.702892541885376,
        -1.7016088962554932
      ],
      "type": "VEC3"
    },
    {
      "bufferView": 1,
      "componentType": 5126,
      "count": 53918,
      "type": "VEC2"
    },
    {
      "bufferView": 2,
      "componentType": 5126,
      "count": 53918,
      "type": "VEC3"
    },
    {
      "bufferView": 3,
      "componentType": 5123,
      "count": 322170,
      "type": "SCALAR"
    }
  ],
  "bufferViews": [
    {
      "buffer": 0,
      "byteLength": 647016,
      "byteOffset": 0,
      "target": 34962
    },
    {
      "buffer": 0,
      "byteLength": 431344,
      "byteOffset": 647016,
      "target": 34962
    },
    {
      "buffer": 0,
      "byteLength": 647016,
      "byteOffset": 1078360,
      "target": 34962
    },
    {
      "buffer": 0,
      "byteLength": 644340,
      "byteOffset": 1725376,
      "target": 34963
    }
  ],
  "samplers": [
    {
      "magFilter": 9729,
      "minFilter": 9987
    }
  ],
  "buffers": [
    {
      "byteLength": 2369716,
      "uri": "herringbone_parquet.bin"
    }
  ]
}